<svg width="32" height="32" viewBox="0 0 32 32" fill="none" xmlns="http://www.w3.org/2000/svg">
<path d="M29.2787 18.2928V28.1315H23.5747V18.9515C23.5747 16.6448 22.7494 15.0715 20.6854 15.0715C19.1094 15.0715 18.1707 16.1328 17.7587 17.1581C17.6081 17.5248 17.5694 18.0355 17.5694 18.5488V28.1315H11.8627C11.8627 28.1315 11.9401 12.5848 11.8627 10.9728H17.5694V13.4048L17.5321 13.4608H17.5694V13.4048C18.3267 12.2381 19.6801 10.5701 22.7107 10.5701C26.4641 10.5701 29.2787 13.0235 29.2787 18.2928ZM5.89475 2.70215C3.94408 2.70215 2.66675 3.98215 2.66675 5.66615C2.66675 7.31282 3.90675 8.63148 5.82008 8.63148H5.85741C7.84808 8.63148 9.08408 7.31282 9.08408 5.66615C9.04942 3.98215 7.84941 2.70215 5.89608 2.70215H5.89475ZM3.00541 28.1315H8.70941V10.9728H3.00541V28.1315Z" fill="#1A1D26"/>
</svg>
