<svg width="28" height="27" viewBox="0 0 28 27" fill="none" xmlns="http://www.w3.org/2000/svg">
<path d="M27.279 16.2928V26.1315H21.575V16.9515C21.575 14.6448 20.7497 13.0715 18.6857 13.0715C17.1097 13.0715 16.171 14.1328 15.759 15.1581C15.6083 15.5248 15.5697 16.0355 15.5697 16.5488V26.1315H9.86299C9.86299 26.1315 9.94033 10.5848 9.86299 8.97282H15.5697V11.4048L15.5323 11.4608H15.5697V11.4048C16.327 10.2381 17.6803 8.57015 20.711 8.57015C24.4643 8.57015 27.279 11.0235 27.279 16.2928V16.2928ZM3.89499 0.702148C1.94433 0.702148 0.666992 1.98215 0.666992 3.66615C0.666992 5.31282 1.90699 6.63148 3.82033 6.63148H3.85766C5.84833 6.63148 7.08433 5.31282 7.08433 3.66615C7.04966 1.98215 5.84966 0.702148 3.89633 0.702148H3.89499ZM1.00566 26.1315H6.70966V8.97282H1.00566V26.1315Z" fill="white"/>
</svg>
