<svg width="40" height="40" viewBox="0 0 40 40" fill="none" xmlns="http://www.w3.org/2000/svg">
<path d="M31.6667 18.3335H8.33333C6.49238 18.3335 5 19.8259 5 21.6668V33.3335C5 35.1744 6.49238 36.6668 8.33333 36.6668H31.6667C33.5076 36.6668 35 35.1744 35 33.3335V21.6668C35 19.8259 33.5076 18.3335 31.6667 18.3335Z" stroke="#FF4F2F" stroke-width="2" stroke-linecap="round" stroke-linejoin="round"/>
<path d="M11.6667 18.3335V11.6668C11.6667 9.45669 12.5447 7.33708 14.1075 5.77427C15.6703 4.21147 17.7899 3.3335 20.0001 3.3335C22.2102 3.3335 24.3298 4.21147 25.8926 5.77427C27.4554 7.33708 28.3334 9.45669 28.3334 11.6668V18.3335" stroke="#FF4F2F" stroke-width="2" stroke-linecap="round" stroke-linejoin="round"/>
</svg>
