<svg width="32" height="32" viewBox="0 0 32 32" fill="none" xmlns="http://www.w3.org/2000/svg">
<path d="M28.6669 23.9997L19.8098 15.9997M12.1908 15.9997L3.33371 23.9997M2.66699 9.33301L13.5536 16.9536C14.4351 17.5707 14.8759 17.8792 15.3553 17.9988C15.7789 18.1043 16.2218 18.1043 16.6453 17.9988C17.1248 17.8792 17.5655 17.5707 18.4471 16.9536L29.3337 9.33301M9.06699 26.6663H22.9337C25.1739 26.6663 26.294 26.6663 27.1496 26.2304C27.9023 25.8469 28.5142 25.235 28.8977 24.4823C29.3337 23.6267 29.3337 22.5066 29.3337 20.2663V11.733C29.3337 9.4928 29.3337 8.37269 28.8977 7.51705C28.5142 6.7644 27.9023 6.15248 27.1496 5.76898C26.294 5.33301 25.1739 5.33301 22.9337 5.33301H9.06699C6.82678 5.33301 5.70668 5.33301 4.85103 5.76898C4.09838 6.15248 3.48646 6.7644 3.10297 7.51705C2.66699 8.37269 2.66699 9.4928 2.66699 11.733V20.2663C2.66699 22.5066 2.66699 23.6267 3.10297 24.4823C3.48646 25.235 4.09838 25.8469 4.85103 26.2304C5.70668 26.6663 6.82678 26.6663 9.06699 26.6663Z" stroke="white" stroke-width="2" stroke-linecap="round" stroke-linejoin="round"/>
</svg>
